<svg xmlns="http://www.w3.org/2000/svg" version="1.1" xmlns:xlink="http://www.w3.org/1999/xlink" xmlns:svgjs="http://svgjs.dev/svgjs" viewBox="0 0 2400 800" opacity="0.99"><defs><linearGradient x1="50%" y1="0%" x2="50%" y2="100%" id="sssurf-grad"><stop stop-color="hsl(208, 77%, 50%)" stop-opacity="1" offset="0%"></stop><stop stop-color="hsl(208, 74%, 93%)" stop-opacity="1" offset="100%"></stop></linearGradient></defs><g fill="url(#sssurf-grad)" transform="matrix(1,0,0,1,2.0377197265625,-51.097015380859375)"><path d="M-10,10C117.08333333333334,30.416666666666664,347.9166666666667,115.29166666666667,600,108C852.0833333333333,100.70833333333333,950,-10,1200,-25C1450,-40,1550,32.25,1800,36C2050,39.75,2222.9166666666665,-82.83333333333333,2400,-7C2577.0833333333335,68.83333333333333,3254.1666666666665,211.04166666666669,2650,400C2045.8333333333335,588.9583333333333,156.25,795.8333333333334,-500,900" transform="matrix(1,0,0,1,0,139)" opacity="0.05"></path><path d="M-10,10C117.08333333333334,30.416666666666664,347.9166666666667,115.29166666666667,600,108C852.0833333333333,100.70833333333333,950,-10,1200,-25C1450,-40,1550,32.25,1800,36C2050,39.75,2222.9166666666665,-82.83333333333333,2400,-7C2577.0833333333335,68.83333333333333,3254.1666666666665,211.04166666666669,2650,400C2045.8333333333335,588.9583333333333,156.25,795.8333333333334,-500,900" transform="matrix(1,0,0,1,0,278)" opacity="0.29"></path><path d="M-10,10C117.08333333333334,30.416666666666664,347.9166666666667,115.29166666666667,600,108C852.0833333333333,100.70833333333333,950,-10,1200,-25C1450,-40,1550,32.25,1800,36C2050,39.75,2222.9166666666665,-82.83333333333333,2400,-7C2577.0833333333335,68.83333333333333,3254.1666666666665,211.04166666666669,2650,400C2045.8333333333335,588.9583333333333,156.25,795.8333333333334,-500,900" transform="matrix(1,0,0,1,0,417)" opacity="0.53"></path><path d="M-10,10C117.08333333333334,30.416666666666664,347.9166666666667,115.29166666666667,600,108C852.0833333333333,100.70833333333333,950,-10,1200,-25C1450,-40,1550,32.25,1800,36C2050,39.75,2222.9166666666665,-82.83333333333333,2400,-7C2577.0833333333335,68.83333333333333,3254.1666666666665,211.04166666666669,2650,400C2045.8333333333335,588.9583333333333,156.25,795.8333333333334,-500,900" transform="matrix(1,0,0,1,0,556)" opacity="0.76"></path><path d="M-10,10C117.08333333333334,30.416666666666664,347.9166666666667,115.29166666666667,600,108C852.0833333333333,100.70833333333333,950,-10,1200,-25C1450,-40,1550,32.25,1800,36C2050,39.75,2222.9166666666665,-82.83333333333333,2400,-7C2577.0833333333335,68.83333333333333,3254.1666666666665,211.04166666666669,2650,400C2045.8333333333335,588.9583333333333,156.25,795.8333333333334,-500,900" transform="matrix(1,0,0,1,0,695)" opacity="1.00"></path></g></svg>